<?xml version="1.0" encoding="UTF-8" standalone="no"?>
<!-- Created with Inkscape (http://www.inkscape.org/) -->

<svg
   width="120mm"
   height="120mm"
   viewBox="0 0 120 120"
   version="1.1"
   id="svg5"
   inkscape:version="1.1.2 (0a00cf5339, 2022-02-04)"
   sodipodi:docname="labCalc.svg"
   xmlns:inkscape="http://www.inkscape.org/namespaces/inkscape"
   xmlns:sodipodi="http://sodipodi.sourceforge.net/DTD/sodipodi-0.dtd"
   xmlns="http://www.w3.org/2000/svg"
   xmlns:svg="http://www.w3.org/2000/svg">
  <sodipodi:namedview
     id="namedview7"
     pagecolor="#ffffff"
     bordercolor="#666666"
     borderopacity="1.0"
     inkscape:pageshadow="2"
     inkscape:pageopacity="0.0"
     inkscape:pagecheckerboard="0"
     inkscape:document-units="mm"
     showgrid="false"
     fit-margin-top="0"
     fit-margin-left="0"
     fit-margin-right="0"
     fit-margin-bottom="0"
     inkscape:zoom="0.90583672"
     inkscape:cx="-3.863831"
     inkscape:cy="160.073"
     inkscape:window-width="1920"
     inkscape:window-height="1043"
     inkscape:window-x="0"
     inkscape:window-y="0"
     inkscape:window-maximized="1"
     inkscape:current-layer="layer3"
     width="120mm" />
  <defs
     id="defs2" />
  <g
     inkscape:groupmode="layer"
     id="layer3"
     inkscape:label="Layer 3"
     style="display:inline"
     transform="translate(-8.3085367,-8.2971679)">
    <path
       id="path4848"
       style="fill:#73d216;stroke-width:1"
       d="M 27.803988,8.8263346 C 16.908767,9.5942913 9.5914133,17.549249 8.8377033,26.455233 V 67.423791 H 67.154041 V 8.8263346 Z M 38.43383,24.482227 c 1.192112,-0.02279 2.792925,1.413785 2.826183,2.343526 0.03326,0.92974 0,10.248471 0,10.248471 0,0 8.887759,-0.04866 9.766329,0 0.878568,0.04866 2.610176,1.035436 2.610176,2.751769 0,1.716334 -1.593705,3.033213 -2.610176,3.03444 -1.016473,0.0013 -9.766329,0 -9.766329,0 0,0 0.05182,8.07761 0,9.311058 -0.05182,1.233448 -1.209135,2.724571 -2.826183,2.781226 -1.617046,0.05666 -2.943715,-1.694389 -2.995684,-2.781226 -0.05197,-1.086834 0,-9.311058 0,-9.311058 0,0 -8.599981,0.06735 -9.668143,0 -1.068161,-0.06735 -2.569206,-1.325075 -2.531628,-3.03444 0.03758,-1.709364 1.693727,-2.765393 2.531628,-2.751769 0.837902,0.01363 9.668143,0 9.668143,0 0,0 -0.03082,-9.296551 0,-10.248471 0.03082,-0.951918 1.803572,-2.320731 2.995684,-2.343526 z" />
    <path
       id="path4848-5"
       style="fill:#fcaf3e;stroke-width:1"
       d="M 69.051082,8.8263346 V 67.423791 H 127.36742 V 26.455233 C 126.61371,17.549249 119.29635,9.5942913 108.40113,8.8263346 Z M 97.852943,37.033398 c 5.966367,-2.46e-4 11.933817,0.0065 12.354797,0.02066 0.84197,0.02832 2.92353,1.085567 2.93832,3.008085 0.0148,1.922516 -1.89847,2.816958 -2.93832,2.901114 -1.03984,0.08416 -23.920422,0.02829 -24.702882,0 -0.782461,-0.02829 -2.522453,-0.818996 -2.574005,-2.901114 -0.0515,-2.08212 1.741065,-2.981722 2.574005,-3.008085 0.41647,-0.01318 6.381718,-0.02043 12.348085,-0.02066 z" />
    <path
       id="path4848-9"
       style="fill:#ef2929;stroke-width:1"
       d="M 8.9214193,69.281042 V 110.2496 c 0.75371,8.90599 8.0710637,16.86095 18.9662827,17.6289 H 67.237755 V 69.281042 Z M 46.65555,85.658337 c 0.896017,-0.0027 1.96474,0.302813 2.501657,0.819587 0.85907,0.826831 0.975487,2.974642 0.341579,3.655592 -0.633907,0.680939 -7.247101,7.247101 -7.247101,7.247101 0,0 6.319232,6.249843 6.906038,6.905523 0.586806,0.65568 1.113893,2.57737 -0.09973,3.79099 -1.213628,1.21363 -3.271864,1.01864 -3.991488,0.30075 -0.719463,-0.71804 -6.906038,-6.90604 -6.906038,-6.90604 0,0 -5.675278,5.74857 -6.584095,6.5841 -0.908825,0.83554 -2.781126,1.07079 -3.964615,-0.0326 -1.183519,-1.10333 -0.883694,-3.27924 -0.151929,-4.0845 0.731756,-0.80525 6.583577,-6.583583 6.583577,-6.583583 0,0 -6.128628,-6.033305 -6.836275,-6.836275 -0.707715,-0.802889 -0.879222,-2.754064 0.35605,-3.936193 1.235273,-1.182122 3.152836,-0.757656 3.735689,-0.155546 0.582869,0.602109 6.836275,6.836275 6.836275,6.836275 0,0 6.551684,-6.595266 7.246585,-7.246586 0.260588,-0.244242 0.736214,-0.357018 1.273826,-0.358635 z" />
    <path
       id="path4848-5-4"
       style="fill:#729fcf;stroke-width:1"
       d="M 69.134799,69.281042 V 127.8785 h 39.350051 c 10.89522,-0.76795 18.21257,-8.72291 18.96628,-17.6289 V 69.281042 Z m 27.846364,12.650907 c 0.9204,-0.0176 2.1561,1.091874 2.18177,1.80971 0.0257,0.717833 0,7.912695 0,7.912695 0,0 6.862297,-0.0376 7.540627,0 0.67833,0.0376 2.01538,0.798745 2.01538,2.1239 0,1.325147 -1.23058,2.342584 -2.01538,2.343526 -0.78481,7.94e-4 -7.540627,0 -7.540627,0 0,0 0.04,6.23639 0,7.18871 -0.04,0.95233 -0.93328,2.10342 -2.18177,2.14716 -1.24849,0.0438 -2.272912,-1.30803 -2.313041,-2.14716 -0.0401,-0.83912 0,-7.18871 0,-7.18871 0,0 -6.639954,0.05204 -7.464661,0 -0.824714,-0.05204 -1.983417,-1.02376 -1.954403,-2.343526 0.02903,-1.319773 1.307471,-2.134417 1.954403,-2.1239 0.646928,0.0105 7.464661,0 7.464661,0 0,0 -0.02379,-7.177736 0,-7.912695 0.02381,-0.73496 1.392621,-1.792113 2.313041,-1.80971 z m -0.14056,26.652121 c 4.606517,-1.8e-4 9.213917,0.005 9.538947,0.016 0.65007,0.0219 2.25718,0.83748 2.2686,2.32182 0.0114,1.48434 -1.46576,2.1752 -2.2686,2.24017 -0.80284,0.065 -18.468614,0.0219 -19.072734,0 -0.604123,-0.0219 -1.947159,-0.63261 -1.98696,-2.24017 -0.03976,-1.60756 1.343861,-2.30146 1.98696,-2.32182 0.321548,-0.0102 4.927264,-0.0158 9.533787,-0.016 z" />
  </g>
</svg>
